<svg xmlns="http://www.w3.org/2000/svg" width="192" height="96" viewBox="0 0 192 96" fill="none">
                  <path d="M96 96C149.019 96 192 74.5097 192 48C192 21.4903 149.019 0 96 0C42.9807 0 0 21.4903 0 48C0 74.5097 42.9807 96 96 96Z" fill="#002E5F"></path>
                  <path d="M97.46 20.5229C105.571 18.6772 110.837 19.5372 113.746 20.5229C113.118 16.7536 111.335 13.2724 108.643 10.5606C105.951 7.84866 102.483 6.04002 98.7186 5.38468C94.9541 4.72934 91.079 5.25966 87.6289 6.90233C84.1789 8.545 81.3244 11.2189 79.46 14.5543C81.6542 20.1772 90.4028 22.1286 97.46 20.5229Z" fill="#FFC82E"></path>
                  <path d="M97.7542 23.6229C106.146 20.2315 111.02 20.9286 113.857 21.5743C113.857 21.6515 113.857 21.4486 113.823 21.2715C111.223 20.3486 106.237 19.8258 97.6685 22.1686C86.2656 25.2886 78.3342 18.2858 78.5256 17.7372C78.0444 19.2373 77.7563 20.7927 77.6685 22.3658C77.6685 22.5286 77.6685 22.6915 77.6685 22.6086C82.1456 26.6658 89.9999 26.7629 97.7542 23.6229Z" fill="#FFC82E"></path>
                  <path d="M98.5343 25.5743C107.551 21.5743 110.891 22.2114 113.891 22.7829C113.891 22.6971 113.891 22.6114 113.891 22.5257C111.214 21.5657 107.294 21.06 98.0257 24.9629C88.9428 28.9629 81.4028 28.1229 77.6914 26.5686C77.8231 27.3837 78.0082 28.1892 78.2457 28.98C88.3028 30.8743 92.9 28.3543 98.5343 25.5743Z" fill="#FFC82E"></path>
                  <path d="M36.0369 49.6372C34.6998 49.9429 34.5398 50.0657 34.5398 52.1257V54.5886C34.5171 55.5542 34.5706 56.52 34.6998 57.4772C33.0941 57.9086 30.7683 58.5857 28.6026 58.5857C22.3998 58.5857 18.4141 54.5257 18.4141 48.3457C18.4141 41.3343 23.3626 37.6743 29.0026 37.6743C31.1969 37.6743 33.2541 38.2886 34.2169 38.5315C34.2969 39.5772 34.4312 41.2086 34.6455 43.6057L33.6283 43.8515C32.9883 40.4086 30.9826 38.9629 28.4683 38.9629C25.2598 38.9629 22.4683 42.2829 22.4683 47.82C22.4683 52.4629 24.4455 57.3229 28.8312 57.3229C29.3655 57.3229 29.9741 57.2286 30.3283 56.9515C30.7312 56.6657 30.9455 56.1829 30.9455 55.2372V52.3115C30.9455 50.16 30.8112 49.9143 28.0026 49.6372V48.5715H36.0255L36.0369 49.6372Z" fill="white"></path>
                  <path d="M55.743 41.68C54.3145 41.76 53.6316 42.32 53.4973 43.2571C53.3115 44.4861 53.2312 45.7288 53.2573 46.9714V49.8857C53.2573 52.72 52.8287 54.9657 51.3316 56.5714C50.103 57.8543 48.283 58.5229 46.3859 58.5229C44.6202 58.5229 42.9373 58.1486 41.6516 57.1571C40.1545 55.9571 39.4287 53.98 39.4287 50.8571V44.54C39.4287 42.0257 39.1602 41.8657 37.1802 41.6829V40.7429H45.2287V41.68C43.2773 41.8657 43.0116 42.0257 43.0116 44.5371V50.3657C43.0116 54.3657 44.4545 56.7029 47.343 56.7029C50.523 56.7029 51.9145 54.2971 51.9145 49.8314V46.9743C51.9355 45.7308 51.8466 44.4878 51.6487 43.26C51.4859 42.3229 50.8716 41.7886 49.0545 41.6829V40.7429H55.743V41.68Z" fill="white"></path>
                  <path d="M70.6916 53.6057C70.4773 54.7486 69.9173 57.4029 69.703 58.1229H56.6802V57.1886C59.0059 57 59.2745 56.84 59.2745 54.5686V44.3257C59.2745 42.04 59.0059 41.8657 56.9745 41.68V40.7429H65.143V41.68C63.1088 41.8657 62.8573 42.0257 62.8573 44.3257V54.7829C62.8573 56.0371 62.9659 56.4971 63.5002 56.7343C64.1485 56.9268 64.8247 57.008 65.5002 56.9743C66.643 56.9743 67.6116 56.7857 68.2545 56.0657C68.7345 55.5314 69.243 54.6743 69.723 53.3114L70.6916 53.6057Z" fill="white"></path>
                  <path d="M83.5799 44.9943C83.3142 43.98 82.9656 43.1771 82.5114 42.7086C81.9399 42.12 81.2285 41.9343 79.7314 41.9343H78.3942C77.4571 41.9343 77.3514 41.9886 77.3514 42.8714V48.78H79.5428C81.9228 48.78 82.1914 48.54 82.4856 46.8286H83.4485V52.1486H82.4856C82.1999 50.3314 81.9142 50.1171 79.5428 50.1171H77.3514V54.3429C77.3514 56.8543 77.5656 57.0143 79.8914 57.2V58.1343H71.5742V57.2C73.5285 57.0114 73.7685 56.8514 73.7685 54.3429V44.46C73.7685 42.0543 73.5285 41.8657 71.5742 41.68V40.7429H84.2228C84.2485 41.1971 84.3828 43.2571 84.5085 44.8343L83.5799 44.9943Z" fill="white"></path>
                  <path d="M108.234 52.8572C107.846 54.5287 107.345 56.1724 106.737 57.7772C106.043 57.9629 103.594 58.5772 101.766 58.5772C94.6514 58.5772 91.7114 53.2572 91.7114 48.3658C91.7114 42.0315 95.9086 37.6658 102.3 37.6658C104.466 37.6658 106.443 38.3115 107.157 38.4943C107.397 40.1858 107.586 41.6029 107.771 43.5086L106.783 43.7229C105.9 40.0943 103.843 39.0172 101.783 39.0172C97.9057 39.0172 95.7657 43.2001 95.7657 47.7515C95.7657 53.4115 98.4143 57.1315 102.051 57.1315C104.269 57.1315 105.929 55.5001 107.291 52.3943L108.234 52.8572Z" fill="white"></path>
                  <path d="M127.783 49.2457C127.783 55.0228 123.637 58.5257 118.586 58.5257C113.237 58.5257 109.52 54.5942 109.52 49.4885C109.52 44.8885 112.809 40.3685 118.931 40.3685C123.8 40.3685 127.783 43.98 127.783 49.2457ZM113.637 48.96C113.637 53.56 115.637 57.4114 119.066 57.4114C121.606 57.4114 123.666 54.9228 123.666 50.0028C123.666 44.6828 121.526 41.5 118.397 41.5C115.714 41.4914 113.637 44.3257 113.637 48.9514V48.96Z" fill="white"></path>
                  <path d="M137.463 58.1229V57.1886C139.04 56.9486 139.177 56.6172 138.745 55.4515C138.48 54.6486 138.077 53.4972 137.677 52.4286H132.534C132.248 53.2572 131.894 54.22 131.571 55.2858C131.171 56.5715 131.251 56.9458 133.203 57.1858V58.12H127.203V57.1858C128.968 56.9715 129.314 56.6772 130.197 54.4315L135.714 40.6886L137.077 40.3429C138.791 45.0229 140.446 49.6743 142.183 54.2743C143.094 56.6258 143.414 56.9743 145.126 57.1886V58.1229H137.463ZM135.191 45.2086H135.111C134.363 47.16 133.683 49.1143 132.997 51.0115H137.168L135.191 45.2086Z" fill="white"></path>
                  <path d="M155.486 45.1029C154.952 43.4172 153.937 41.4372 151.772 41.4372C151.424 41.4277 151.078 41.4902 150.755 41.6207C150.432 41.7512 150.14 41.9468 149.897 42.1955C149.653 42.4441 149.463 42.7403 149.34 43.0656C149.216 43.3908 149.161 43.7381 149.177 44.0858C149.177 45.5572 150.14 46.3715 152.492 47.5886C155.3 48.9515 157.226 50.4458 157.226 53.0972C157.226 56.1458 154.632 58.5258 150.729 58.5258C149.814 58.5304 148.904 58.4044 148.026 58.1515C147.477 57.9981 146.941 57.8013 146.423 57.5629C146.154 56.8943 145.809 54.6486 145.62 53.0429L146.557 52.7229C147.092 54.4372 148.669 57.4543 151.234 57.4543C152.866 57.4543 153.909 56.3315 153.909 54.62C153.909 53.0429 152.734 52.0486 150.729 50.9858C148 49.5943 146.074 48.1486 146.074 45.5829C146.074 42.6429 148.4 40.3429 152.197 40.3429C153.465 40.3738 154.719 40.6083 155.912 41.0372C156.02 42.0258 156.197 43.2315 156.42 44.8886L155.486 45.1029Z" fill="white"></path>
                  <path d="M172.68 45.3171C172.36 43.9257 171.986 43.0171 171.506 42.5343C171.026 42.0514 170.363 41.92 168.777 41.92H167.575V54.5714C167.575 56.8429 167.84 57.0029 170.195 57.1914V58.1257H161.477V57.1914C163.723 57.0029 163.992 56.8429 163.992 54.5714V41.92H163.083C160.863 41.92 160.38 42.1886 160.006 42.6429C159.552 43.0971 159.232 44.0057 158.883 45.3429H157.895C158 43.3914 158.16 41.4371 158.215 40.0743H158.883C159.286 40.6629 159.632 40.7429 160.409 40.7429H171.157C171.447 40.7669 171.738 40.7183 172.004 40.6016C172.269 40.4848 172.502 40.3036 172.68 40.0743H173.349C173.377 41.1971 173.509 43.5514 173.635 45.2629L172.68 45.3171Z" fill="white"></path>
                  <path d="M150.572 30.7028C144.423 30.8685 135.937 28.9885 126.572 26.3428C117.206 23.6971 108.434 22.4142 102.557 24.9142C92.9315 28.9885 93.8115 29.6885 86.9715 30.7C82.9715 31.0371 77.3972 30.1285 71.2115 28.7571C65.0258 27.3857 59.4972 27.4257 55.5515 28.7085C51.6001 29.8514 49.2401 32.2171 49.2344 32.0685C49.2344 32.2171 51.6487 30.7914 55.6458 30.6028C59.6458 30.2657 65.2201 31.1742 71.4058 32.5457C77.5915 33.9171 83.1201 33.8771 87.0658 32.5942C90.2915 31.6685 95.3515 27.8971 102.552 27.8285C108.697 27.66 117.186 29.5428 126.552 32.1857C135.917 34.8285 144.414 35.2542 150.566 33.6314C156.717 32.2342 160.526 28.8028 160.526 29.0285C160.534 28.7885 156.729 30.7628 150.572 30.7028Z" fill="#007987"></path>
                  <path d="M141.714 35.7715C135.929 35.8229 127.969 34.0086 119.186 31.4857C110.403 28.9629 102.174 27.6715 96.6144 29.8058C87.4915 33.3029 88.3087 33.9429 81.8544 34.7429C78.0915 34.9772 72.8544 34.08 67.0515 32.7429C61.2487 31.4058 56.043 31.3629 52.3115 32.4572C48.5772 33.4115 46.3115 35.5 46.3115 35.3657C46.3115 35.5 48.5972 34.26 52.3658 34.1572C56.1287 33.92 61.3687 34.8172 67.1715 36.1572C72.9744 37.4972 78.1801 37.5372 81.9115 36.4429C84.9601 35.6657 89.7715 32.3657 96.5572 32.4172C102.343 32.3686 110.303 34.1829 119.086 36.7029C127.869 39.2229 135.852 39.74 141.657 38.3829C147.469 37.24 151.103 34.2143 151.1 34.42C151.106 34.2143 147.492 35.9257 141.714 35.7715Z" fill="#55BAB7"></path>
                  <path d="M157.091 76.9257H37.8286V77.7857H157.091V76.9257Z" fill="white"></path>
                  <path d="M156.897 61.3372H37.8286V62.1972H156.897V61.3372Z" fill="white"></path>
                  <path d="M43.7142 67.4114C43.4085 66.5543 42.8313 65.5371 41.6028 65.5371C40.7456 65.5371 40.1313 66.1085 40.1313 66.8914C40.1313 67.6428 40.677 68.0657 42.0142 68.68C43.6056 69.3771 44.6999 70.1428 44.6999 71.4971C44.6999 73.0542 43.2285 74.2714 41.0113 74.2714C40.4938 74.2739 39.9781 74.2095 39.477 74.08C39.1663 74.0012 38.8617 73.8999 38.5656 73.7771C38.3455 73.0227 38.1934 72.2501 38.1113 71.4685L38.6428 71.3057C38.9456 72.18 39.8428 73.7228 41.2999 73.7228C42.2256 73.7228 42.817 73.1514 42.817 72.2743C42.817 71.4685 42.1485 70.9628 41.0113 70.4171C39.4628 69.7057 38.3685 68.9685 38.3685 67.6571C38.3685 66.1543 39.6913 64.9771 41.8456 64.9771C42.5631 64.9922 43.2745 65.1125 43.957 65.3343C44.017 65.84 44.1228 66.4543 44.2428 67.3L43.7142 67.4114Z" fill="white"></path>
                  <path d="M54.2859 67.52C54.103 66.8086 53.8916 66.3457 53.6173 66.0915C53.343 65.8372 52.9659 65.78 52.0687 65.78H51.3859V72.2429C51.3859 73.4029 51.5373 73.4857 52.8744 73.58V74.06H47.9144V73.58C49.1887 73.4857 49.343 73.4029 49.343 72.2429V65.7857H48.8287C47.5687 65.7857 47.2944 65.92 47.083 66.1543C46.823 66.3857 46.6402 66.8486 46.443 67.5343H45.8716C45.9316 66.5372 46.023 65.5343 46.0544 64.84H46.4316C46.6602 65.1429 46.8573 65.1829 47.2887 65.1829H53.3916C53.5512 65.1954 53.7115 65.1709 53.8601 65.1115C54.0088 65.052 54.1417 64.9591 54.2487 64.84H54.6287C54.643 65.4115 54.7201 66.6172 54.7944 67.4915L54.2859 67.52Z" fill="white"></path>
                  <path d="M60.4085 74.0657V73.5857C61.3057 73.4628 61.38 73.3 61.1371 72.7C60.9857 72.2886 60.7571 71.7 60.5314 71.1543H57.6171C57.4485 71.5771 57.2514 72.0714 57.0685 72.6171C56.8428 73.2714 56.8857 73.4743 57.9942 73.5857V74.0657H54.5942V73.5857C55.5971 73.4771 55.7942 73.3257 56.2942 72.18L59.4085 65.1428L60.1828 64.9657C61.1542 67.3571 62.0942 69.7343 63.08 72.0857C63.5971 73.2886 63.78 73.4657 64.7514 73.5743V74.0543L60.4085 74.0657ZM59.12 67.4657H59.0742C58.6485 68.4628 58.2685 69.4657 57.8742 70.4314H60.2428L59.12 67.4657Z" fill="white"></path>
                  <path d="M73.1626 67.52C72.9798 66.8086 72.7683 66.3457 72.4941 66.0915C72.2198 65.8372 71.8426 65.78 70.9455 65.78H70.2626V72.2429C70.2626 73.4029 70.4141 73.4857 71.7512 73.58V74.06H66.8026V73.58C68.0769 73.4857 68.2312 73.4029 68.2312 72.2429V65.7857H67.7141C66.4541 65.7857 66.1826 65.92 65.9683 66.1543C65.7112 66.3857 65.5283 66.8486 65.3312 67.5343H64.7598C64.8198 66.5372 64.9112 65.5343 64.9398 64.84H65.3198C65.5483 65.1429 65.7455 65.1829 66.1769 65.1829H72.2855C72.4451 65.1954 72.6054 65.1709 72.7541 65.1115C72.9027 65.052 73.0357 64.9591 73.1426 64.84H73.5226C73.5369 65.4115 73.6141 66.6172 73.6883 67.4915L73.1626 67.52Z" fill="white"></path>
                  <path d="M83.183 71.7972C83.0773 72.4114 82.7744 73.6543 82.6516 74.0657H74.9087V73.5857C76.2001 73.4914 76.3516 73.4086 76.3516 72.2486V67C76.3516 65.8114 76.2001 65.7429 75.123 65.66V65.1829H82.2658C82.283 65.4286 82.3573 66.3857 82.4201 67.2314L81.8487 67.3C81.751 66.863 81.5424 66.4586 81.243 66.1257C80.983 65.88 80.5744 65.7857 79.723 65.7857H78.9944C78.423 65.7857 78.3715 65.8114 78.3715 66.2629V69.16H79.3887C80.6658 69.16 80.8773 69.0914 81.0744 68.1343H81.6201V70.88H81.0744C80.8773 69.8972 80.6801 69.8429 79.3887 69.8429H78.3715V72.22C78.3715 72.8772 78.4344 73.2029 78.7373 73.34C79.1824 73.4576 79.6433 73.5039 80.103 73.4772C80.8915 73.4772 81.423 73.3829 81.7716 73.04C82.1359 72.6488 82.4263 72.1948 82.6287 71.7L83.183 71.7972Z" fill="white"></path>
                  <path d="M97.5 71.7286C97.2733 72.479 96.9867 73.2099 96.6428 73.9143C95.7174 74.1201 94.7757 74.2444 93.8285 74.2857C89.7885 74.2857 88.1143 71.92 88.1143 69.7486C88.1143 66.9315 90.4971 64.9915 94.1143 64.9915C95.0456 65.0166 95.9717 65.1402 96.8771 65.36C97.0143 66.1115 97.12 66.7429 97.2257 67.5886L96.6543 67.6829C96.1514 66.0715 94.9828 65.5943 93.8143 65.5943C91.6114 65.5943 90.3857 67.4515 90.3857 69.4743C90.3857 71.9886 91.8885 73.6429 93.9543 73.6429C95.2143 73.6429 96.1543 72.9172 96.9285 71.5372L97.5 71.7286Z" fill="white"></path>
                  <path d="M109.343 69.5286C109.343 72.48 106.991 74.2715 104.123 74.2715C101.086 74.2715 98.98 72.2715 98.98 69.6515C98.98 67.3 100.849 64.9915 104.326 64.9915C107.083 64.9915 109.343 66.8372 109.343 69.5286ZM101.314 69.3772C101.314 71.7286 102.457 73.6972 104.394 73.6972C105.837 73.6972 107.006 72.4257 107.006 69.9115C107.006 67.1915 105.791 65.5657 104.014 65.5657C102.497 65.5657 101.314 67.0143 101.314 69.3772Z" fill="white"></path>
                  <path d="M118.514 71.7543C118.394 72.3429 118.074 73.6972 117.943 74.0657H110.571V73.5857C111.891 73.4914 112.043 73.4086 112.043 72.2486V67.0143C112.043 65.84 111.891 65.7571 110.737 65.66V65.1829H115.368V65.66C114.226 65.7571 114.08 65.84 114.08 67.0143V72.3572C114.08 73 114.14 73.2314 114.443 73.3543C114.815 73.4547 115.201 73.4961 115.586 73.4772C116.237 73.4772 116.783 73.3829 117.148 73.0143C117.518 72.6054 117.802 72.1264 117.983 71.6057L118.514 71.7543Z" fill="white"></path>
                  <path d="M127.306 71.7543C127.186 72.3429 126.866 73.6972 126.734 74.0657H119.352V73.5857C120.672 73.4914 120.823 73.4086 120.823 72.2486V67.0143C120.823 65.84 120.672 65.7571 119.517 65.66V65.1829H124.149V65.66C123.006 65.7571 122.857 65.84 122.857 67.0143V72.3572C122.857 73 122.92 73.2314 123.223 73.3543C123.595 73.4548 123.981 73.4963 124.366 73.4772C125.02 73.4772 125.566 73.3829 125.932 73.0143C126.301 72.6054 126.585 72.1264 126.766 71.6057L127.306 71.7543Z" fill="white"></path>
                  <path d="M136.446 71.7972C136.34 72.4114 136.037 73.6543 135.914 74.0657H128.174V73.5857C129.463 73.4914 129.603 73.4086 129.603 72.2486V67C129.603 65.8114 129.451 65.7429 128.374 65.66V65.1829H135.517C135.531 65.4286 135.606 66.3857 135.669 67.2314L135.097 67.3C135 66.863 134.791 66.4586 134.491 66.1257C134.231 65.88 133.823 65.7857 132.971 65.7857H132.286C131.714 65.7857 131.663 65.8114 131.663 66.2629V69.16H132.68C133.957 69.16 134.169 69.0914 134.366 68.1343H134.911V70.88H134.366C134.169 69.8972 133.971 69.8429 132.68 69.8429H131.663V72.22C131.663 72.8772 131.726 73.2029 132.029 73.34C132.474 73.4576 132.935 73.5039 133.394 73.4772C134.183 73.4772 134.714 73.3829 135.066 73.04C135.429 72.648 135.719 72.1942 135.923 71.7L136.446 71.7972Z" fill="white"></path>
                  <path d="M147.697 70.2857C146.937 70.4229 146.84 70.4772 146.84 71.3915V72.4857C146.828 72.9152 146.857 73.3449 146.929 73.7686C145.798 74.0567 144.642 74.23 143.477 74.2857C139.954 74.2857 137.694 72.48 137.694 69.7343C137.694 66.6172 140.503 64.9915 143.694 64.9915C144.691 65.0181 145.683 65.1464 146.654 65.3743C146.7 65.84 146.774 66.5629 146.897 67.6286L146.326 67.74C145.96 66.2086 144.823 65.5657 143.394 65.5657C141.574 65.5657 139.994 67.0429 139.994 69.5029C139.994 71.5657 141.117 73.7229 143.609 73.7229C143.903 73.7402 144.198 73.6842 144.466 73.56C144.694 73.4372 144.817 73.2172 144.817 72.7943V71.4972C144.817 70.54 144.74 70.4315 143.146 70.3086V69.8286H147.7L147.697 70.2857Z" fill="white"></path>
                  <path d="M157.157 71.7972C157.051 72.4114 156.746 73.6543 156.626 74.0657H148.883V73.5857C150.174 73.4914 150.311 73.4086 150.311 72.2486V67C150.311 65.8114 150.16 65.7429 149.08 65.66V65.1829H156.223C156.223 65.4286 156.314 66.3857 156.374 67.2314L155.803 67.3C155.706 66.8622 155.496 66.4574 155.194 66.1257C154.937 65.88 154.526 65.7857 153.677 65.7857H152.949C152.377 65.7857 152.326 65.8114 152.326 66.2629V69.16H153.343C154.617 69.16 154.831 69.0914 155.029 68.1343H155.574V70.88H155.029C154.831 69.8972 154.631 69.8429 153.343 69.8429H152.326V72.22C152.326 72.8772 152.386 73.2029 152.689 73.34C153.134 73.4573 153.595 73.5036 154.054 73.4772C154.846 73.4772 155.377 73.3829 155.726 73.04C156.089 72.648 156.379 72.1942 156.583 71.7L157.157 71.7972Z" fill="white"></path>
                  <path d="M71.3601 85.1828C71.5115 85.7686 72.0115 86.76 72.8515 86.76C72.9518 86.7709 73.0533 86.7598 73.1489 86.7277C73.2445 86.6955 73.332 86.643 73.4054 86.5737C73.4787 86.5045 73.5362 86.4201 73.5737 86.3265C73.6113 86.2328 73.6281 86.1322 73.623 86.0314C73.623 85.5743 73.2515 85.3028 72.7515 84.9857C72.1544 84.6371 71.5772 84.1914 71.5772 83.4171C71.5772 82.4286 72.3487 81.7543 73.6458 81.7543C74.1514 81.762 74.6475 81.8924 75.0915 82.1343C75.0601 82.46 75.0172 82.84 74.983 83.4743L74.603 83.5171C74.5058 82.6028 74.123 82.1657 73.5258 82.1657C73.4249 82.1614 73.3242 82.1777 73.2299 82.2137C73.1355 82.2497 73.0494 82.3045 72.977 82.3748C72.9045 82.4451 72.8471 82.5295 72.8084 82.6227C72.7696 82.716 72.7503 82.8161 72.7515 82.9171C72.7515 83.2971 73.123 83.5714 73.6658 83.8857C74.3515 84.2571 74.9287 84.6914 74.9287 85.52C74.9287 86.6628 73.8201 87.1857 72.7087 87.1857C72.1394 87.1895 71.5835 87.0136 71.1201 86.6828C71.0277 86.2124 70.9836 85.7337 70.9887 85.2543L71.3601 85.1828Z" fill="white"></path>
                  <path d="M79.0883 82.2429C78.4883 82.2857 78.4026 82.34 78.2826 82.9829L77.7112 85.9657C77.5912 86.5629 77.6798 86.6286 78.3426 86.6829L78.2455 87.0543H75.4141L75.5026 86.6829C76.1341 86.64 76.1969 86.5857 76.3283 85.9657L76.9169 82.9829C77.0369 82.34 76.9483 82.2857 76.2855 82.2429L76.3626 81.8829H79.1912L79.0883 82.2429Z" fill="white"></path>
                  <path d="M86.0999 82.2428C85.6085 82.2657 85.3799 82.3943 85.2714 82.7314C85.1628 83.0686 85.0885 83.3971 84.9685 84.0286L84.3685 87.1428H83.8571L81.3314 83.1714H81.3114L80.9628 84.9C80.8779 85.3062 80.8197 85.7176 80.7885 86.1314C80.7542 86.5343 80.9742 86.6543 81.5485 86.6743L81.4742 87.0457H79.2856L79.3742 86.6743C79.5488 86.6973 79.7258 86.6544 79.8705 86.554C80.0152 86.4537 80.1174 86.303 80.1571 86.1314C80.2835 85.72 80.3884 85.3023 80.4714 84.88L80.8085 83.28C80.9942 82.4228 80.8856 82.3114 80.0914 82.2343L80.1771 81.8743H82.0514L84.2371 85.1828H84.2856L84.5142 84.02C84.6114 83.4743 84.6771 83.04 84.6999 82.7343C84.7199 82.3857 84.5142 82.2657 83.8942 82.2343L83.9685 81.8743H86.1914L86.0999 82.2428Z" fill="white"></path>
                  <path d="M91.3144 85.5514C91.1231 86.042 90.8899 86.5152 90.6173 86.9657C90.0759 87.1009 89.5209 87.1747 88.963 87.1857C87.5487 87.1857 86.2744 86.4114 86.2744 84.8657C86.2744 82.8657 87.9716 81.7543 89.9887 81.7543C90.519 81.7619 91.0457 81.8416 91.5544 81.9914C91.5116 82.4486 91.4801 82.8857 91.4458 83.5286L91.0887 83.56C91.023 82.5914 90.5173 82.1657 89.8458 82.1657C88.6601 82.1657 87.8458 83.5486 87.8458 84.8657C87.8458 86.0086 88.3658 86.7486 89.1401 86.7486C89.7916 86.7486 90.3916 86.2171 90.9687 85.3886L91.3144 85.5514Z" fill="white"></path>
                  <path d="M97.0687 81.8829C97.0373 82.1029 96.9602 82.6886 96.8944 83.2657L96.5144 83.2886C96.4931 83.0522 96.4343 82.8207 96.3402 82.6029C96.2516 82.3943 96.1002 82.3171 95.6202 82.3171H95.0973C94.8116 82.3371 94.7944 82.3371 94.7516 82.6029L94.4659 84.1257H95.1059C95.7059 84.1257 95.7602 84.0829 95.9773 83.5714H96.3373L96.0002 85.2257H95.6516C95.6516 84.6714 95.5744 84.6143 94.9973 84.6143H94.3659L94.1602 85.7571C94.083 86.2029 94.1173 86.42 94.2573 86.5057C94.4857 86.6077 94.7374 86.6462 94.9859 86.6172C95.1552 86.6378 95.3269 86.6231 95.4902 86.5739C95.6534 86.5247 95.8047 86.4421 95.9344 86.3314C96.1753 86.0966 96.3769 85.8245 96.5316 85.5257L96.8802 85.6657C96.7253 86.1443 96.5343 86.6104 96.3087 87.06H91.7373L91.823 86.6886C92.5316 86.6457 92.6087 86.5914 92.7373 85.8829L93.283 83.0972C93.423 82.3457 93.3487 82.2914 92.6744 82.24L92.7602 81.88L97.0687 81.8829Z" fill="white"></path>
                  <path d="M103.803 87.0543H100.134L100.22 86.6943L100.809 86.62C101.309 86.5543 101.38 86.3886 101.471 85.9114L101.951 83.4829C102.04 83.0372 101.974 82.9714 101.646 82.96L100.983 82.9286L101.049 82.5914C101.905 82.4821 102.753 82.3112 103.586 82.08L102.857 85.9114C102.771 86.3886 102.794 86.5629 103.283 86.62L103.914 86.6943L103.803 87.0543Z" fill="white"></path>
                  <path d="M106.395 88.5714C105.849 88.7145 105.291 88.8101 104.729 88.8571L104.663 88.4971C106.197 88.1714 107.592 87.2771 108.114 85.9829H108.08C107.472 86.2686 107.297 86.3314 107.026 86.3314C106.788 86.3383 106.55 86.296 106.329 86.2073C106.108 86.1185 105.907 85.9852 105.74 85.8155C105.572 85.6459 105.441 85.4435 105.355 85.2212C105.27 84.9988 105.23 84.7611 105.24 84.5229C105.263 83.867 105.541 83.2458 106.014 82.7909C106.487 82.336 107.118 82.0831 107.774 82.0857C108.886 82.0857 109.8 82.8914 109.8 84.5029C109.8 86.2257 108.766 87.8714 106.395 88.5714ZM107.569 82.5171C107.014 82.5171 106.666 83.3743 106.666 84.1829C106.666 85.1314 107.092 85.6743 107.743 85.6743C107.91 85.68 108.075 85.6426 108.223 85.5657C108.379 85.0923 108.453 84.5955 108.44 84.0971C108.429 83.2429 108.177 82.5029 107.569 82.5029V82.5171Z" fill="white"></path>
                  <path d="M114.72 83.2114L112.217 83.4171L111.931 84.2029C112.9 84.3972 114.503 84.7743 114.503 86.3257C114.503 87.1514 114.014 87.8143 113.054 88.3486C112.552 88.6363 111.989 88.8044 111.411 88.84C111.025 88.8307 110.654 88.6838 110.366 88.4257C110.302 88.3705 110.254 88.2982 110.23 88.2174C110.205 88.1365 110.203 88.0502 110.226 87.9686C110.279 87.7803 110.404 87.6203 110.574 87.5229C110.596 87.5023 110.623 87.487 110.652 87.4779C110.681 87.4688 110.711 87.4662 110.741 87.4703C110.771 87.4744 110.8 87.4851 110.826 87.5016C110.851 87.5181 110.872 87.54 110.888 87.5657C111.247 87.9343 111.727 88.1589 112.24 88.1972C112.74 88.1972 113.22 87.8486 113.22 86.9886C113.22 85.8686 112.326 85.4543 111.097 85.2572L112 82.3629L115.091 82.0771L114.72 83.2114Z" fill="white"></path>
                  <path d="M121.143 82.3629C120.394 83.5057 118.237 86.6286 116.811 88.6743L115.626 88.86L115.56 88.6743C117.132 86.9928 118.594 85.212 119.937 83.3429H116.397L116.571 82.2H121.057L121.143 82.3629Z" fill="white"></path>
                  <path d="M96.02 94.0571C70.9429 94.0571 47.3572 89.2886 29.6143 80.6286C11.7714 71.9171 1.94287 60.3029 1.94287 47.92C1.94287 35.5371 11.7714 23.92 29.6143 15.2143C47.3572 6.55428 70.9429 1.78571 96.02 1.78571C121.097 1.78571 144.68 6.55713 162.426 15.2143C180.269 23.9228 190.097 35.5371 190.097 47.92C190.097 60.3029 180.269 71.92 162.426 80.6257C144.68 89.2886 121.097 94.0571 96.02 94.0571ZM96.02 2.64571C44.62 2.64571 2.80573 22.9571 2.80573 47.92C2.80573 72.8829 44.62 93.1971 96.02 93.1971C147.42 93.1971 189.234 72.8857 189.234 47.92C189.234 22.9543 147.429 2.64571 96.02 2.64571Z" fill="white"></path></svg>